# xmcd
# Track frame offsets:
# 150
# 19550
# 36085
# 53916
# 70525
# 88289
# 108536
# 126874
# 144191
# 161487
# 179998
#
# Disc length: 2625 seconds
# Revision: 0
# Processed by: cddbd v1.4PL0 Copyright (c) Steve Scherf et al.
# Submitted via: VisiTrax 2.9.3.170 - For more info visit www.synapsa.com
#
DISCID=950a3f0b
DTITLE=Jennifer Hanson - Jennifer Hanson
DYEAR=1900
DGENRE=
TTITLE0=Beautiful Goodbye
TTITLE1=Just One Of Those Days
TTITLE2=Half A Heart Tattoo
TTITLE3=This Far Gone
TTITLE4=Get Yourself Back
TTITLE5=All Those Yesterdays
TTITLE6=Travis
TTITLE7=One Little Word
TTITLE8=It Isn't Just Raining
TTITLE9=Baby I Was Wrong
TTITLE10=Simply Yours
EXTD=
EXTT0=
EXTT1=
EXTT2=
EXTT3=
EXTT4=
EXTT5=
EXTT6=
EXTT7=
EXTT8=
EXTT9=
EXTT10=
PLAYORDER=
